<svg id="Layer_1" data-name="Layer 1" xmlns="http://www.w3.org/2000/svg" viewBox="0 0 500 500"><defs><style>.cls-1{fill:#516386;}</style></defs><path class="cls-1" d="M72.87,100.72l2.91-.14q14.82-.73,29.62-1.49l-1.5-58.25h0l-14,.51-2.19.07V59a7,7,0,0,1-14,0v-17l-14.78.53L43,43,39.86,54.49h9.51a7,7,0,0,1,0,14H36L33.14,79.06H58.69a7,7,0,0,1,0,14H29.32l-2.89,10.57h9.69a7,7,0,1,1,0,14H22.6L19.72,128.2H37.85a7,7,0,0,1,0,14h-22l-3,11.12,30.07,1q14.28-25.53,28.54-51.1Z"/><path class="cls-1" d="M119.49,34.65l1.8,69.59,84.52-2.33a59.2,59.2,0,0,1-9.05-25.44,57.11,57.11,0,0,1-.39-6.78A59.28,59.28,0,0,1,209.6,32.17ZM127,86l-.91-33.38,66.54-1.83.92,33.38Z"/><path class="cls-1" d="M314.9,80.45a60.1,60.1,0,0,1-14.37,29.22l-12.08,32.88a7,7,0,0,1-4.35,11.87l-3.92,10.68h5a7,7,0,0,1,0,14H275l-4.24,11.53a7,7,0,0,1-3.4,13.12H266l-3.88,10.58h11.63a7,7,0,0,1,0,14H257L253,239.09a7,7,0,0,1-1.65,13.81h-3.42l-3.88,10.57h19a7,7,0,0,1,0,14H238.92L235,288h3a7,7,0,0,1,0,14h-8.11L226,312.61h23.41a7,7,0,1,1,0,14H220.87L217,337.19h7.39a7,7,0,0,1,0,14H211.85L208,361.76h27.84a7,7,0,0,1,0,14h-33L199,386.33h9.39a7,7,0,0,1,0,14H193.81l-3.88,10.57H222.2a7,7,0,0,1,0,14H184.79l-3.89,10.57h11.4a7,7,0,0,1,0,14H175.76L171.88,460l-2.53,6.89H286.87l6.35,0c106.89,0,193.86-87,193.86-193.87C487.08,174.94,411.85,91.28,314.9,80.45ZM462.48,240h0a7.63,7.63,0,0,1-6,8.93l-13.28,2.58a8.11,8.11,0,0,1-1.46.14,7.61,7.61,0,0,1-1.45-15.08L453.56,234A7.62,7.62,0,0,1,462.48,240Zm-7.38-38.24a7.55,7.55,0,0,1,4.13,4.12h0a7.61,7.61,0,0,1-4.11,9.94l-25,10.36a7.41,7.41,0,0,1-2.91.58,7.61,7.61,0,0,1-2.92-14.63l25-10.36A7.51,7.51,0,0,1,455.1,201.74Zm-22.36-25.91a7.61,7.61,0,0,1,2.68,13.81l-11.28,7.46a7.49,7.49,0,0,1-4.19,1.27,7.61,7.61,0,0,1-4.2-14L427,177A7.56,7.56,0,0,1,432.74,175.83ZM421.22,149a7.6,7.6,0,0,1,0,10.76l-19.14,19.13a7.6,7.6,0,0,1-10.76-10.75L410.46,149A7.63,7.63,0,0,1,421.22,149Zm-47.12-2.79L381.67,135a7.61,7.61,0,0,1,12.61,8.51l-7.57,11.22a7.61,7.61,0,0,1-12.61-8.52Zm-29-5.75,10.36-25a7.6,7.6,0,1,1,14.05,5.82l-10.35,25a7.59,7.59,0,0,1-7,4.7,7.39,7.39,0,0,1-2.89-.58,7.62,7.62,0,0,1-4.14-9.94Zm-26.2-14.35h0l2.7-13.26a7.61,7.61,0,0,1,14.92,3l-2.7,13.26a7.64,7.64,0,0,1-7.46,6.09,8,8,0,0,1-1.53-.16,7.6,7.6,0,0,1-5.93-9ZM294.47,386.32V165.12h5.25a110.6,110.6,0,0,1,0,221.2Zm39.45,48.2a7.56,7.56,0,0,1-4.85,3.21h0a7.58,7.58,0,0,1-8.9-6l-2.58-13.28a7.61,7.61,0,0,1,14.93-2.91l2.59,13.29A7.6,7.6,0,0,1,333.92,434.52Zm34.5-3.55a7.57,7.57,0,0,1-4.12,4.12h0a7.43,7.43,0,0,1-2.9.58,7.59,7.59,0,0,1-7-4.7L344,406a7.62,7.62,0,0,1,4.12-9.94,7.62,7.62,0,0,1,9.95,4.12l10.35,25A7.53,7.53,0,0,1,368.42,431ZM390,412.83a7.63,7.63,0,0,1-10.56-2.15L372,399.4a7.61,7.61,0,1,1,12.7-8.39l7.46,11.28A7.62,7.62,0,0,1,390,412.83Zm31.23-15.76a7.6,7.6,0,0,1-10.77,0L391.3,377.94a7.61,7.61,0,0,1,5.38-13h0a7.56,7.56,0,0,1,5.38,2.23l19.12,19.14a7.6,7.6,0,0,1,0,10.75Zm14.93-29.58a7.61,7.61,0,0,1-10.56,2.05L414.36,362a7.61,7.61,0,0,1,8.51-12.62l11.21,7.57a7.59,7.59,0,0,1,2.05,10.56Zm22.73-26.25a7.59,7.59,0,0,1-7,4.7,7.49,7.49,0,0,1-2.91-.59l-25-10.35A7.61,7.61,0,1,1,429.76,321l25,10.35a7.61,7.61,0,0,1,4.11,9.94Zm3.32-35.44h0a7.63,7.63,0,0,1-7.45,6.09,7.76,7.76,0,0,1-1.52-.15L440,309.05a7.61,7.61,0,0,1,3-14.92l13.27,2.71A7.61,7.61,0,0,1,462.18,305.8Zm2.8-25.18H437.93a7.61,7.61,0,0,1,0-15.22H465a7.61,7.61,0,0,1,0,15.22Z"/><path class="cls-1" d="M147,466.93l2.53-6.89,3.88-10.57h-7.28a7,7,0,0,1,0-14h12.42l3.88-10.57H134.68a7,7,0,1,1,0-14h32.87l3.89-10.57H167a7,7,0,1,1,0-14h9.57l3.88-10.57H158a7,7,0,0,1,0-14H185.6l3.88-10.57h-1.57a7,7,0,0,1,0-14h6.71l3.88-10.58H181.34a7,7,0,0,1,0-14h22.3L207.52,302H206.4a7,7,0,0,1,0-14h6.26l3.88-10.57H204.68a7,7,0,0,1,0-14h17l3.88-10.57h-.95a7,7,0,0,1,0-14h6.09l3.88-10.57h-9.48a7,7,0,0,1,0-14h14.62l4-10.82a7,7,0,0,1,1.82-13.76h3.23l3.91-10.65h-6.4a7,7,0,0,1,0-14H257.8L262.23,153a7,7,0,0,1,4.2-12.59h.43l4.78-13a59.95,59.95,0,0,1-56.83-14.57L63.86,466.93Z"/><circle class="cls-1" cx="256.14" cy="69.69" r="25.12"/></svg>