<svg id="Layer_1" data-name="Layer 1" xmlns="http://www.w3.org/2000/svg" viewBox="0 0 500 500"><defs><style>.cls-1{fill:#463f3a;}</style></defs><path class="cls-1" d="M72.91,101.49l2.91-.14q14.82-.72,29.61-1.48l-1.5-58.25h0l-14,.5-2.2.08V59.73a7,7,0,1,1-14,0v-17l-14.78.53L43,43.81,39.89,55.27H49.4a7,7,0,0,1,0,14H36.06L33.18,79.84H58.73a7,7,0,1,1,0,14H29.35l-2.89,10.57h9.69a7,7,0,1,1,0,14H22.64L19.75,129H37.88a7,7,0,0,1,0,14h-22l-3,11.11,30.07,1Q57.24,129.6,71.49,104Z"/><path class="cls-1" d="M119.53,35.42,121.32,105l84.52-2.32a59.78,59.78,0,0,1,3.79-69.75ZM127,86.73l-.92-33.37,66.54-1.83.92,33.37Z"/><path class="cls-1" d="M147,467.7l2.52-6.88,3.88-10.58h-7.28a7,7,0,0,1,0-14h12.42l3.89-10.57H134.71a7,7,0,0,1,0-14h32.88l3.88-10.57H167a7,7,0,1,1,0-14h9.57l3.88-10.57H158a7,7,0,1,1,0-14h27.59L189.51,352h-1.57a7,7,0,0,1,0-14h6.71l3.88-10.57H181.38a7,7,0,0,1,0-14h22.29l3.89-10.57h-1.13a7,7,0,0,1,0-14h6.27l3.88-10.58H204.71a7,7,0,0,1,0-14h17l3.88-10.57h-.95a7,7,0,0,1,0-14h6.09l3.88-10.57h-9.48a7,7,0,0,1,0-14h14.62l4-10.81a7,7,0,0,1,1.82-13.76h3.23l3.92-10.66h-6.41a7,7,0,1,1,0-14h11.55l4.42-12.06a7,7,0,0,1,4.21-12.59h.42l4.78-13a59.88,59.88,0,0,1-56.83-14.56L63.89,467.7Z"/><circle class="cls-1" cx="256.17" cy="70.46" r="25.12"/><path class="cls-1" d="M388.9,240.36l-67.16,33.58-33.52,67,67-33.52ZM297,332.22l25.84-51.68,25.84,25.84Z"/><path class="cls-1" d="M314.93,81.22a60,60,0,0,1-14.37,29.22l-12.07,32.89a7,7,0,0,1-4.36,11.86l-3.92,10.68h5a7,7,0,0,1,0,14H275.07l-4.24,11.54a7,7,0,0,1-3.39,13.12H266l-3.89,10.57h11.64a7,7,0,0,1,0,14H257l-4,10.77a7,7,0,0,1-1.65,13.8H248l-3.88,10.57h19a7,7,0,0,1,0,14H239l-3.88,10.58h3a7,7,0,1,1,0,14h-8.11l-3.88,10.57h23.4a7,7,0,0,1,0,14H220.91L217,338h7.39a7,7,0,1,1,0,14H211.88L208,362.53h27.84a7,7,0,1,1,0,14h-33L199,387.1h9.39a7,7,0,0,1,0,14H193.84L190,411.67h32.27a7,7,0,0,1,0,14H184.82l-3.88,10.57h11.39a7,7,0,1,1,0,14H175.8l-3.89,10.58-2.52,6.88H286.91l6.34,0c106.9,0,193.86-87,193.86-193.86C487.11,175.72,411.88,92.05,314.93,81.22ZM462.51,240.76h0a7.62,7.62,0,0,1-6,8.92l-13.28,2.58a8,8,0,0,1-1.45.14,7.61,7.61,0,0,1-1.46-15.08l13.29-2.58A7.64,7.64,0,0,1,462.51,240.76Zm-29.74-64.15a7.61,7.61,0,0,1,2.69,13.8l-11.29,7.47A7.61,7.61,0,0,1,412.52,190a7.6,7.6,0,0,1,3.26-4.83l11.28-7.46A7.57,7.57,0,0,1,432.77,176.61Zm-11.52-26.86a7.6,7.6,0,0,1,0,10.76l-19.13,19.13a7.61,7.61,0,1,1-10.76-10.76l19.13-19.13A7.61,7.61,0,0,1,421.25,149.75ZM374.14,147l7.56-11.21a7.61,7.61,0,1,1,12.61,8.51l-7.56,11.21A7.61,7.61,0,1,1,374.14,147Zm-29-5.76,10.35-25A7.61,7.61,0,1,1,369.53,122l-10.35,25a7.61,7.61,0,1,1-14.06-5.82Zm-26.2-14.34h0l2.7-13.26a7.61,7.61,0,0,1,14.91,3l-2.7,13.26a7.63,7.63,0,0,1-7.45,6.09,7.78,7.78,0,0,1-1.53-.15,7.61,7.61,0,0,1-5.93-9ZM294.5,387.09V359.73L244.36,384.8q25.06-50.15,50.14-100.28V165.89h5.25a110.58,110.58,0,0,1,92.9,50.69l40.11-20.06q-4.06,8.13-8.14,16.24l24.7-10.24a7.62,7.62,0,0,1,9.95,4.11h0a7.63,7.63,0,0,1-4.11,9.94l-25,10.36a7.6,7.6,0,0,1-9.94-4.12A7.19,7.19,0,0,1,420,222q-6.62,13.2-13.24,26.4a110.6,110.6,0,0,1-107,138.66ZM334,435.29a7.53,7.53,0,0,1-4.86,3.21h0a7.64,7.64,0,0,1-8.9-6L317.6,419.2a7.61,7.61,0,0,1,14.94-2.91l2.58,13.29A7.59,7.59,0,0,1,334,435.29Zm34.49-3.55a7.57,7.57,0,0,1-4.12,4.12h0a7.62,7.62,0,0,1-9.93-4.12l-10.35-25a7.61,7.61,0,1,1,14.06-5.82l10.35,25A7.53,7.53,0,0,1,368.45,431.74ZM390,413.6a7.6,7.6,0,0,1-10.55-2.14L372,400.17a7.61,7.61,0,0,1,12.7-8.39l7.46,11.28A7.62,7.62,0,0,1,390,413.6Zm31.23-15.75a7.6,7.6,0,0,1-10.76,0l-19.13-19.13a7.61,7.61,0,0,1,0-10.76,7.52,7.52,0,0,1,5.38-2.23h0A7.56,7.56,0,0,1,402.1,368l19.13,19.13a7.6,7.6,0,0,1,0,10.76Zm14.94-29.58a7.6,7.6,0,0,1-10.57,2l-11.21-7.56a7.61,7.61,0,1,1,8.52-12.61l11.21,7.56a7.62,7.62,0,0,1,2.05,10.57ZM458.9,342a7.6,7.6,0,0,1-7,4.7,7.68,7.68,0,0,1-2.92-.58l-25-10.35a7.61,7.61,0,1,1,5.83-14.06l25,10.35A7.61,7.61,0,0,1,458.9,342Zm3.32-35.43h0a7.62,7.62,0,0,1-7.45,6.09,7.76,7.76,0,0,1-1.52-.15L440,309.82a7.61,7.61,0,0,1,3-14.91l13.27,2.7A7.63,7.63,0,0,1,462.22,306.58ZM465,281.4H438a7.61,7.61,0,1,1,0-15.22H465a7.61,7.61,0,1,1,0,15.22Z"/></svg>