<svg id="Layer_1" data-name="Layer 1" xmlns="http://www.w3.org/2000/svg" viewBox="0 0 500 500"><defs><style>.cls-1{fill:#fff;}</style></defs><path class="cls-1" d="M72.91,101.16l2.91-.14,29.61-1.49-1.5-58.25h0l-14,.51-2.2.07V59.4a7,7,0,1,1-14,0v-17l-14.78.53L43,43.47,39.89,54.93H49.4a7,7,0,1,1,0,14H36.06L33.18,79.5H58.73a7,7,0,1,1,0,14H29.35l-2.89,10.57h9.69a7,7,0,1,1,0,14H22.64l-2.89,10.57H37.88a7,7,0,0,1,0,14h-22l-3,11.12,30.07,1q14.28-25.53,28.53-51.1Z"/><path class="cls-1" d="M119.53,35.08l1.79,69.6,84.52-2.33a59.77,59.77,0,0,1,3.79-69.74ZM127,86.4,126.11,53l66.54-1.83.92,33.38Z"/><path class="cls-1" d="M147,467.37l2.52-6.89,3.88-10.57h-7.28a7,7,0,1,1,0-14h12.42l3.89-10.57H134.71a7,7,0,0,1,0-14h32.88l3.88-10.57H167a7,7,0,1,1,0-14h9.57l3.88-10.58H158a7,7,0,0,1,0-14h27.59l3.88-10.57h-1.57a7,7,0,1,1,0-14h6.71l3.88-10.57H181.38a7,7,0,0,1,0-14h22.29l3.89-10.57h-1.13a7,7,0,0,1,0-14h6.27l3.88-10.57H204.71a7,7,0,1,1,0-14h17l3.88-10.57h-.95a7,7,0,0,1,0-14h6.09l3.88-10.57h-9.48a7,7,0,0,1,0-14h14.62l4-10.82a7,7,0,0,1,1.82-13.76h3.23l3.92-10.65h-6.41a7,7,0,0,1,0-14h11.55l4.42-12.06a7,7,0,0,1,4.21-12.6h.42l4.78-13a59.95,59.95,0,0,1-56.83-14.57L63.89,467.37Z"/><circle class="cls-1" cx="256.17" cy="70.13" r="25.12"/><path class="cls-1" d="M388.9,240,321.74,273.6l-33.52,67,67-33.51ZM297,331.88l25.84-51.67,25.84,25.84Z"/><path class="cls-1" d="M314.93,80.89a60,60,0,0,1-14.37,29.22L288.49,143a7,7,0,0,1-4.36,11.87l-3.92,10.68h5a7,7,0,0,1,0,14H275.07l-4.24,11.53a7,7,0,0,1-3.39,13.12H266l-3.89,10.58h11.64a7,7,0,0,1,0,14H257l-4,10.76a7,7,0,0,1-1.65,13.81H248l-3.88,10.57h19a7,7,0,0,1,0,14H239l-3.88,10.57h3a7,7,0,0,1,0,14h-8.11l-3.88,10.57h23.4a7,7,0,0,1,0,14H220.91L217,337.62h7.39a7,7,0,0,1,0,14H211.88L208,362.19h27.84a7,7,0,0,1,0,14h-33L199,386.77h9.39a7,7,0,0,1,0,14H193.84L190,411.34h32.27a7,7,0,0,1,0,14H184.82l-3.88,10.57h11.39a7,7,0,0,1,0,14H175.8l-3.89,10.57-2.52,6.89H286.91l6.34,0c106.9,0,193.86-87,193.86-193.86C487.11,175.38,411.88,91.72,314.93,80.89ZM462.51,240.42h0a7.63,7.63,0,0,1-6,8.93l-13.28,2.58a8,8,0,0,1-1.45.14A7.61,7.61,0,0,1,440.3,237l13.29-2.58A7.62,7.62,0,0,1,462.51,240.42Zm-29.74-64.15a7.62,7.62,0,0,1,2.69,13.81l-11.29,7.46a7.61,7.61,0,0,1-11.65-7.86,7.6,7.6,0,0,1,3.26-4.83l11.28-7.46A7.58,7.58,0,0,1,432.77,176.27Zm-11.52-26.86a7.6,7.6,0,0,1,0,10.76L402.12,179.3a7.6,7.6,0,1,1-10.76-10.75l19.13-19.14A7.63,7.63,0,0,1,421.25,149.41Zm-47.11-2.79,7.56-11.21a7.61,7.61,0,1,1,12.61,8.51l-7.56,11.22a7.61,7.61,0,1,1-12.61-8.52Zm-29-5.75,10.35-25a7.61,7.61,0,1,1,14.06,5.82l-10.35,25a7.59,7.59,0,0,1-7,4.7,7.4,7.4,0,0,1-2.9-.58,7.6,7.6,0,0,1-4.13-9.94Zm-26.2-14.35h0l2.7-13.26a7.61,7.61,0,1,1,14.91,3l-2.7,13.26a7.64,7.64,0,0,1-7.45,6.09,7.79,7.79,0,0,1-1.53-.16,7.6,7.6,0,0,1-5.93-9ZM294.5,386.76V359.4l-50.14,25.07L294.5,284.18V165.56h5.25a110.58,110.58,0,0,1,92.9,50.69l40.11-20.06-8.14,16.23,24.7-10.23a7.51,7.51,0,0,1,5.81,0,7.6,7.6,0,0,1,4.14,4.12h0a7.63,7.63,0,0,1-4.11,9.94l-25,10.36a7.41,7.41,0,0,1-2.91.58,7.58,7.58,0,0,1-7-4.7,7,7,0,0,1-.24-.78q-6.62,13.2-13.24,26.39a110.6,110.6,0,0,1-107,138.67ZM334,435a7.59,7.59,0,0,1-4.86,3.22h0a7.58,7.58,0,0,1-8.9-6l-2.58-13.28A7.61,7.61,0,0,1,332.54,416l2.58,13.29A7.56,7.56,0,0,1,334,435Zm34.49-3.54a7.57,7.57,0,0,1-4.12,4.12h0a7.43,7.43,0,0,1-2.9.58,7.59,7.59,0,0,1-7-4.7l-10.35-25a7.61,7.61,0,0,1,9.94-9.94,7.53,7.53,0,0,1,4.12,4.12l10.35,25A7.53,7.53,0,0,1,368.45,431.41ZM390,413.27a7.62,7.62,0,0,1-10.55-2.15L372,399.84a7.61,7.61,0,1,1,12.7-8.39l7.46,11.28A7.62,7.62,0,0,1,390,413.27Zm31.23-15.76a7.59,7.59,0,0,1-10.76,0l-19.13-19.14a7.61,7.61,0,0,1,0-10.76,7.52,7.52,0,0,1,5.38-2.23h0a7.56,7.56,0,0,1,5.38,2.23l19.13,19.14a7.59,7.59,0,0,1,0,10.75Zm14.94-29.58A7.62,7.62,0,0,1,425.6,370l-11.21-7.56a7.61,7.61,0,0,1-3.21-4.86,7.61,7.61,0,0,1,11.73-7.76l11.21,7.57a7.61,7.61,0,0,1,2.05,10.56Zm22.73-26.25a7.6,7.6,0,0,1-7,4.69,7.5,7.5,0,0,1-2.92-.58l-25-10.35a7.61,7.61,0,1,1,5.83-14.05l25,10.35a7.55,7.55,0,0,1,4.12,4.11A7.65,7.65,0,0,1,458.9,341.68Zm3.32-35.44h0a7.62,7.62,0,0,1-7.45,6.09,7.76,7.76,0,0,1-1.52-.15L440,309.49a7.61,7.61,0,0,1,3-14.92l13.27,2.71A7.62,7.62,0,0,1,462.22,306.24Zm2.8-25.18H438a7.61,7.61,0,1,1,0-15.22H465a7.61,7.61,0,0,1,0,15.22Z"/></svg>