<svg xmlns="http://www.w3.org/2000/svg" viewBox="0 0 500 500"><defs><style>.cls-1{fill:#005fa2;}</style></defs><g id="Layer_2" data-name="Layer 2"><path class="cls-1" d="M457,250c0,111-90,201-201,201a201.85,201.85,0,0,1-24.23-1.45,165.41,165.41,0,0,1,10.34-21.22c3-5.16,15.43-25.93,46.22-51.55,19.68-16.38,36.6-26.19,56-37.34,32.61-18.72,34.28-15.43,50.23-27.11,12-8.81,36-26.41,48.88-58.66a119.25,119.25,0,0,0,8.07-50.51A201.39,201.39,0,0,1,457,250Z"/><path class="cls-1" d="M375.89,258.11c-15.19,18.4-36.21,35-36.21,35-8.6,6.79-11.2,7.92-19.35,13.91a273.26,273.26,0,0,0-48.89,47.11c-10.78,13.32-18.29,26.8-33.33,53.78-4.35,7.81-10.29,18.86-9.33,33.22a47.61,47.61,0,0,0,1.28,8.23c-1.5-.19-3-.4-4.49-.63a132.57,132.57,0,0,1-8.79-44.82c-1.1-64.53,47.72-115,70.22-138.22,29.18-30.15,38.22-27.76,63.56-59.56,20.86-26.19,40.25-51.26,36.44-82.22-2.16-17.55-11.1-31.52-20-41.51a201.64,201.64,0,0,1,31.59,25.91h0a111.78,111.78,0,0,1,16,45.81C420.18,204.48,387.79,243.7,375.89,258.11Z"/><path class="cls-1" d="M184.33,371.67c3.38,30.82,19,56.41,36.4,76.24C126.53,431.24,55,349,55,250A201.08,201.08,0,0,1,197.9,57.53c62.93,25.42,81.85,53.83,86.88,76.14C301.74,208.93,173.35,271.44,184.33,371.67Z"/></g></svg>